<?xml version="1.0" standalone="no"?>
<!DOCTYPE svg PUBLIC "-//W3C//DTD SVG 20010904//EN"
 "http://www.w3.org/TR/2001/REC-SVG-20010904/DTD/svg10.dtd">
<svg version="1.0" xmlns="http://www.w3.org/2000/svg"
 width="512.000000pt" height="512.000000pt" viewBox="0 0 512.000000 512.000000"
 preserveAspectRatio="xMidYMid meet">
<metadata>
Created by potrace 1.14, written by Peter Selinger 2001-2017
</metadata>
<g transform="translate(0.000000,512.000000) scale(0.100000,-0.100000)"
fill="#000000" stroke="none">
<path d="M0 2560 l0 -2560 2560 0 2560 0 0 2560 0 2560 -2560 0 -2560 0 0
-2560z m1009 1243 c49 -153 135 -420 191 -593 121 -377 109 -344 115 -338 3 2
18 51 35 109 16 57 98 328 182 602 l152 497 288 0 288 0 0 -1520 0 -1520 -235
0 -235 0 0 669 c0 687 5 842 41 1279 11 139 19 257 17 262 -2 6 -71 -200 -154
-457 l-151 -468 -234 -3 -234 -2 -149 460 c-82 253 -154 465 -158 472 -6 8 -7
-9 -4 -42 11 -102 36 -523 46 -755 5 -126 10 -497 10 -822 l0 -593 -235 0
-235 0 0 1520 0 1520 285 0 284 0 90 -277z m2876 266 c401 -40 689 -275 786
-639 19 -72 23 -111 23 -250 1 -187 -17 -275 -79 -407 -84 -179 -231 -325
-404 -403 -28 -13 -51 -28 -51 -34 0 -5 135 -293 301 -640 165 -346 303 -635
306 -643 4 -11 -42 -13 -272 -11 l-277 3 -278 615 -278 615 -186 3 -186 2 0
-620 0 -620 -240 0 -240 0 0 1520 0 1520 483 0 c278 0 530 -5 592 -11z"/>
<path d="M3290 3181 l0 -461 270 0 c160 0 291 5 322 11 81 17 153 57 207 114
85 90 121 189 121 335 0 220 -101 373 -284 433 -53 17 -97 20 -348 25 l-288 4
0 -461z"/>
</g>
</svg>
